<svg width="16" height="16" viewBox="0 0 16 16" fill="none" xmlns="http://www.w3.org/2000/svg">
<path opacity="0.3" d="M11.3335 5.33406C10.9653 5.33406 10.6668 5.03558 10.6668 4.66739C10.6668 4.2992 10.9653 4.00072 11.3335 4.00072H12.0002C13.4729 4.00072 14.6668 5.19463 14.6668 6.66739V12.0007C14.6668 13.4735 13.4729 14.6674 12.0002 14.6674H4.00016C2.5274 14.6674 1.3335 13.4735 1.3335 12.0007L1.3335 6.66276C1.3335 5.19 2.5274 3.99609 4.00016 3.99609H4.66683C5.03502 3.99609 5.3335 4.29457 5.3335 4.66276C5.3335 5.03095 5.03502 5.32943 4.66683 5.32943H4.00016C3.26378 5.32943 2.66683 5.92638 2.66683 6.66276V12.0007C2.66683 12.7371 3.26378 13.3341 4.00016 13.3341H12.0002C12.7365 13.3341 13.3335 12.7371 13.3335 12.0007V6.66739C13.3335 5.93101 12.7365 5.33406 12.0002 5.33406H11.3335Z" fill="#B0B7C3"/>
<rect opacity="0.3" width="1.33333" height="8" rx="0.666667" transform="matrix(-1 0 0 1 8.6665 1.33398)" fill="#B0B7C3"/>
<path d="M8.00016 1.61013L9.52876 3.13872C9.78911 3.39907 10.2112 3.39907 10.4716 3.13872C10.7319 2.87837 10.7319 2.45626 10.4716 2.19591L8.47157 0.195914C8.21122 -0.064436 7.78911 -0.064436 7.52876 0.195914L5.52876 2.19591C5.26841 2.45626 5.26841 2.87837 5.52876 3.13872C5.78911 3.39907 6.21122 3.39907 6.47157 3.13872L8.00016 1.61013Z" fill="#B0B7C3"/>
</svg>
