<svg width="20" height="20" viewBox="0 0 20 20" fill="none" xmlns="http://www.w3.org/2000/svg">
<path fill-rule="evenodd" clip-rule="evenodd" d="M5.7268 16.1151L5 6.66675H15L14.2732 16.1151C14.2131 16.8966 13.5614 17.5001 12.7776 17.5001H7.22238C6.43858 17.5001 5.78691 16.8966 5.7268 16.1151ZM7.04532 11.7413L6.66667 8.33341H13.3333L12.9598 11.695L7.04532 11.7413Z" fill="#B0B7C3"/>
<path opacity="0.3" fill-rule="evenodd" clip-rule="evenodd" d="M11.6665 3.75V3C11.6665 2.72386 11.4426 2.5 11.1665 2.5H8.83317C8.55703 2.5 8.33317 2.72386 8.33317 3V3.75H4.6665C4.39036 3.75 4.1665 3.97386 4.1665 4.25V4.5C4.1665 4.77614 4.39036 5 4.6665 5H15.3332C15.6093 5 15.8332 4.77614 15.8332 4.5V4.25C15.8332 3.97386 15.6093 3.75 15.3332 3.75H11.6665Z" fill="#B0B7C3"/>
</svg>
